<svg version="1.1" id="Слой_1" xmlns="http://www.w3.org/2000/svg" xmlns:xlink="http://www.w3.org/1999/xlink" x="0px" y="0px" width="48px" height="48px" viewBox="0 0 48 48" enable-background="new 0 0 48 48" xml:space="preserve">
<path fill="#1565C0" d="M16,6C11.039,6,6.364,7.211,2.242,9.344l7.341,14.223C11.506,22.571,13.685,22,16,22c7.732,0,14,6.268,14,14
	h16C46,19.432,32.568,6,16,6z"></path>
<g>
	<path fill="#2196F3" d="M27.244,27.686l11.484-11.367l-2.109-2.131L25.608,25.836C26.207,26.402,26.753,27.021,27.244,27.686z"></path>
	<path fill="#2196F3" d="M28.619,29.967l13.43-8.981l-1.666-2.492l-13.021,9.349C27.842,28.509,28.261,29.22,28.619,29.967z"></path>
	<path fill="#2196F3" d="M29.49,32.303l0.432-0.117l14.424-6.21l-1.186-2.755l-14.504,6.824
		C28.996,30.767,29.276,31.521,29.49,32.303z"></path>
	<path fill="#2196F3" d="M29.972,35.441H30v1.574l16.066-1.137l-0.211-2.992l-14.538,1.516l-1.382,0.33
		C29.957,34.967,29.961,35.205,29.972,35.441z"></path>
	<path fill="#2196F3" d="M29.925,34.548l1.393-0.146l14.328-3.417l-0.696-2.918l-15.027,4.118l-0.416,0.179
		C29.697,33.073,29.848,33.799,29.925,34.548z"></path>
	<path fill="#2196F3" d="M15.712,35.441L9.583,23.566c0.726-0.375,1.498-0.668,2.29-0.915L4.933,8.045L2.224,9.334L15.712,35.441
		L15.712,35.441z"></path>
	<path fill="#2196F3" d="M16,22c1.029,0,2.03,0.119,2.996,0.329l1.167-16.105l-2.991-0.216l-0.603,15.425L15.038,5.949l-2.984,0.296
		l1.987,14.98l-4.01-14.692L7.138,7.322l4.737,15.328C13.181,22.244,14.559,22,16,22z"></path>
	<path fill="#2196F3" d="M21.368,23.07L25.365,7.43l-2.906-0.742l-3.448,15.646C19.826,22.512,20.614,22.757,21.368,23.07z"></path>
	<path fill="#2196F3" d="M25.586,25.816l9.278-13.229l-2.455-1.722l-8.503,13.024l6.672-14.187l-2.713-1.275l-6.332,14.712
		C23.043,23.791,24.407,24.705,25.586,25.816z"></path>
</g>
<g>
	<polyline fill="#FFE082" points="18,36 20,40 18,41 13,38 	"></polyline>
	<path fill="#FFE082" d="M16,22c-2.315,0-4.494,0.571-6.417,1.566L16,36h14C30,28.268,23.732,22,16,22z"></path>
</g>
<polygon fill="#FFC107" points="46,38 13,38 13,36 46,35 "></polygon>
<circle fill="#795548" cx="17" cy="37" r="1"></circle>
</svg>
