<svg version="1.1" id="Слой_1" xmlns="http://www.w3.org/2000/svg" xmlns:xlink="http://www.w3.org/1999/xlink" x="0px" y="0px" width="48px" height="48px" viewBox="0 0 48 48" enable-background="new 0 0 48 48" xml:space="preserve">
<path fill="#2196F3" d="M36.75,26L36.75,26L33,26.769L29.25,26c0,0-8.25,1.527-8.25,10h24C45,27.559,36.75,26,36.75,26"></path>
<path fill="#4FC3F7" d="M18.75,32L18.75,32L15,32.769L11.25,32c0,0-8.25,1.527-8.25,10h24C27,33.559,18.75,32,18.75,32"></path>
<path fill="#0D47A1" d="M33.052,32c3.06,0,5.579-2.291,5.948-5.25c-0.884-0.398-1.603-0.607-1.954-0.693
	C37.016,28.238,35.241,30,33.052,30c-2.19,0-3.964-1.762-3.994-3.944c-0.353,0.085-1.071,0.292-1.955,0.688
	C27.469,29.705,29.99,32,33.052,32z"></path>
<path fill="#01579B" d="M15,38c3.059,0,5.579-2.291,5.948-5.25c-0.884-0.398-1.603-0.607-1.954-0.693C18.963,34.238,17.189,36,15,36
	c-2.19,0-3.964-1.762-3.994-3.944c-0.352,0.085-1.071,0.292-1.955,0.688C9.417,35.705,11.938,38,15,38z"></path>
<g>
	<path fill="#FFA726" d="M23,23.5c0,0.829-0.671,1.5-1.5,1.5S20,24.329,20,23.5s0.671-1.5,1.5-1.5S23,22.671,23,23.5"></path>
	<path fill="#FFA726" d="M10,23.5c0,0.829-0.672,1.5-1.5,1.5S7,24.329,7,23.5S7.672,22,8.5,22S10,22.671,10,23.5"></path>
	<path fill="#FFA726" d="M41,17.5c0,0.829-0.672,1.5-1.5,1.5S38,18.329,38,17.5s0.672-1.5,1.5-1.5S41,16.671,41,17.5"></path>
	<path fill="#FFA726" d="M28,17.5c0,0.829-0.672,1.5-1.5,1.5S25,18.329,25,17.5s0.672-1.5,1.5-1.5S28,16.671,28,17.5"></path>
</g>
<path fill="#FF9800" d="M19,32c0,0,0,4-4,4s-4-4-4-4"></path>
<g>
	<path fill="#FF9800" d="M33,30c-4,0-4-4-4-4v-4h8v4C37,26,37,30,33,30z"></path>
	<path fill="#FF9800" d="M15,36c-4,0-4-4-4-4v-4h8v4C19,32,19,36,15,36z"></path>
</g>
<g>
	<path fill="#FFB74D" d="M40,12c0-5.878-14-3.827-14,0v6.069C26,21.896,29.133,25,33,25c3.866,0,7-3.104,7-6.931V12z"></path>
	<path fill="#FFB74D" d="M22,19.68c0-5.878-14-3.827-14,0v4.39C8,27.896,11.133,31,15,31c3.866,0,7-3.104,7-6.931V19.68z"></path>
</g>
<g>
	<path fill="#424242" d="M33,6c-4.86,0-8,4.313-8,8.173V16l2,2v-4l9.2-3l2.8,3v4l2-2v-0.808c0-3.22-0.83-6.804-4.8-7.593L35.4,6H33z
		"></path>
	<path fill="#424242" d="M15,12c-4.86,0-8,4.313-8,8.173V22l2,2v-4l9.2-3l2.8,3v4l2-2v-0.808c0-3.22-0.831-6.804-4.8-7.593L17.4,12
		H15z"></path>
</g>
<g>
	<path fill="#784719" d="M35,17c0,0.552,0.448,1,1,1s1-0.448,1-1s-0.448-1-1-1S35,16.448,35,17"></path>
	<path fill="#784719" d="M29,17c0,0.552,0.448,1,1,1s1-0.448,1-1s-0.448-1-1-1S29,16.448,29,17"></path>
	<path fill="#784719" d="M17,23c0,0.552,0.448,1,1,1s1-0.448,1-1s-0.448-1-1-1S17,22.448,17,23"></path>
	<path fill="#784719" d="M11,23c0,0.552,0.448,1,1,1s1-0.448,1-1s-0.448-1-1-1S11,22.448,11,23"></path>
</g>
</svg>
