<svg version="1.1" id="Слой_1" xmlns="http://www.w3.org/2000/svg" xmlns:xlink="http://www.w3.org/1999/xlink" x="0px" y="0px" width="48px" height="48px" viewBox="0 0 48 48" enable-background="new 0 0 48 48" xml:space="preserve">
<path fill="#795548" d="M23.001,13.995v3.003C23.001,17.553,23.449,18,24,18c0.554,0,0.999-0.447,0.999-1.002v-3.003
    c-0.319,0.083-0.65,0.141-0.999,0.141S23.322,14.078,23.001,13.995z"></path>
<path fill="#FFB300" d="M28,10.161c0-2.236-4-8.096-4-8.096s-4,5.859-4,8.096c0,1.884,1.278,3.452,3.001,3.904v-1.883
    c0-0.558,0.447-1.011,0.999-1.011c0.554,0,0.999,0.453,0.999,1.011v1.883C26.722,13.613,28,12.045,28,10.161z"></path>
<path fill="#FF9800" d="M22,12.135c0-1.104,0.897-1.998,2-1.998c1.104,0,2,0.894,2,1.998c0,1.107-0.896,2.002-2,2.002
    C22.897,14.137,22,13.242,22,12.135z"></path>
<path fill="#E65100" d="M24,11.136c-0.551,0-0.999,0.447-0.999,0.999v1.86c0.321,0.083,0.65,0.141,0.999,0.141
    s0.68-0.058,0.999-0.141v-1.86C24.999,11.583,24.554,11.136,24,11.136z"></path>
<path fill="#FF4081" d="M28,37.999C28,39.104,27.105,40,26.002,40h-4.004C20.896,40,20,39.104,20,37.999L19.964,17.99
    c0-1.104,0.896-1.998,1.998-1.998h4.004c1.104,0,1.998,0.894,1.998,1.998L28,37.999z"></path>
<path fill="#632D21" d="M36,43c0,1.104-0.896,2-2,2H14c-1.104,0-2-0.896-2-2l-1-13c0-1.104,0.896-2,2-2h22c1.104,0,2,0.896,2,2
    L36,43z"></path>
<g>
    <path fill="#FFE082" d="M38,29c0,4-6.268,5-14,5s-14-1-14-5s6-5,14-5S38,25,38,29z"></path>
    <path fill="#FFE082" d="M10,29c0.531,2.438,3.438,3.375,4.063,6.139c0.18,0.796,0.532,2.412,1.326,2.787
        c0.611,0.288,1.078,0.115,1.313-0.488c0.479-1.23,0.299-2.75,1.736-2.75c1.563,0,1.979,1.254,2.361,2.638
        c0.243,0.881,0.687,1.782,1.479,2.347c1.33,0.949,2.791-0.428,3.475-1.619c0.813-1.415,0.987-4.09,3.243-3.227
        C29.703,35.098,30.237,36,31,36c1,0,1.527-0.641,2.001-1.267c2.043-2.7,2.615-1.917,3.778-3.08C37.779,30.653,38,29,38,29H10z"></path>
</g>
<g>
    <circle fill="#E91E63" cx="18" cy="27" r="1"></circle>
    <circle fill="#E91E63" cx="26" cy="31" r="1"></circle>
</g>
<g>
    <circle fill="#9C27B0" cx="25" cy="27" r="1"></circle>
    <circle fill="#9C27B0" cx="22" cy="29" r="1"></circle>
</g>
<circle fill="#1E88E5" cx="30" cy="27" r="1"></circle>
</svg>
